<svg width="91" height="21" viewBox="0 0 91 21" fill="none" xmlns="http://www.w3.org/2000/svg">
<path d="M48.8355 14.974V16.75H42.0595V5.182H44.2115V14.974H48.8355ZM53.2702 8.414C53.8782 8.414 54.4302 8.51267 54.9262 8.71C55.4275 8.90733 55.8542 9.18733 56.2062 9.55C56.5635 9.91267 56.8382 10.3553 57.0302 10.878C57.2222 11.4007 57.3182 11.9847 57.3182 12.63C57.3182 13.2807 57.2222 13.8673 57.0302 14.39C56.8382 14.9127 56.5635 15.358 56.2062 15.726C55.8542 16.094 55.4275 16.3767 54.9262 16.574C54.4302 16.7713 53.8782 16.87 53.2702 16.87C52.6568 16.87 52.0995 16.7713 51.5982 16.574C51.0968 16.3767 50.6675 16.094 50.3102 15.726C49.9582 15.358 49.6835 14.9127 49.4862 14.39C49.2942 13.8673 49.1982 13.2807 49.1982 12.63C49.1982 11.9847 49.2942 11.4007 49.4862 10.878C49.6835 10.3553 49.9582 9.91267 50.3102 9.55C50.6675 9.18733 51.0968 8.90733 51.5982 8.71C52.0995 8.51267 52.6568 8.414 53.2702 8.414ZM53.2702 15.35C53.9528 15.35 54.4568 15.1207 54.7822 14.662C55.1128 14.2033 55.2782 13.5313 55.2782 12.646C55.2782 11.7607 55.1128 11.086 54.7822 10.622C54.4568 10.158 53.9528 9.926 53.2702 9.926C52.5768 9.926 52.0622 10.1607 51.7262 10.63C51.3955 11.094 51.2302 11.766 51.2302 12.646C51.2302 13.526 51.3955 14.198 51.7262 14.662C52.0622 15.1207 52.5768 15.35 53.2702 15.35ZM61.7632 12.446C62.0085 12.446 62.2218 12.414 62.4032 12.35C62.5845 12.2807 62.7338 12.1873 62.8512 12.07C62.9738 11.9527 63.0645 11.8113 63.1232 11.646C63.1872 11.4807 63.2192 11.2993 63.2192 11.102C63.2192 10.6967 63.0965 10.3767 62.8512 10.142C62.6112 9.902 62.2485 9.782 61.7632 9.782C61.2778 9.782 60.9125 9.902 60.6672 10.142C60.4272 10.3767 60.3072 10.6967 60.3072 11.102C60.3072 11.294 60.3365 11.4727 60.3952 11.638C60.4592 11.8033 60.5498 11.9473 60.6672 12.07C60.7898 12.1873 60.9418 12.2807 61.1232 12.35C61.3098 12.414 61.5232 12.446 61.7632 12.446ZM63.9952 17.118C63.9952 16.958 63.9472 16.8273 63.8512 16.726C63.7552 16.6247 63.6245 16.5473 63.4592 16.494C63.2938 16.4353 63.0992 16.3927 62.8752 16.366C62.6565 16.3393 62.4218 16.3207 62.1712 16.31C61.9258 16.294 61.6698 16.2807 61.4032 16.27C61.1418 16.2593 60.8858 16.238 60.6352 16.206C60.4165 16.3287 60.2378 16.4727 60.0992 16.638C59.9658 16.8033 59.8992 16.9953 59.8992 17.214C59.8992 17.358 59.9338 17.4913 60.0032 17.614C60.0778 17.742 60.1925 17.8513 60.3472 17.942C60.5072 18.0327 60.7125 18.102 60.9632 18.15C61.2138 18.2033 61.5205 18.23 61.8832 18.23C62.2512 18.23 62.5685 18.2007 62.8352 18.142C63.1018 18.0887 63.3205 18.0113 63.4912 17.91C63.6672 17.814 63.7952 17.6967 63.8752 17.558C63.9552 17.4247 63.9952 17.278 63.9952 17.118ZM65.9632 8.822V9.558C65.9632 9.79267 65.8218 9.93667 65.5392 9.99L64.8032 10.126C64.9152 10.4087 64.9712 10.718 64.9712 11.054C64.9712 11.4593 64.8885 11.8273 64.7232 12.158C64.5632 12.4833 64.3392 12.7607 64.0512 12.99C63.7632 13.2193 63.4218 13.398 63.0272 13.526C62.6378 13.6487 62.2165 13.71 61.7632 13.71C61.6032 13.71 61.4485 13.702 61.2992 13.686C61.1498 13.67 61.0032 13.6487 60.8592 13.622C60.6032 13.7767 60.4752 13.95 60.4752 14.142C60.4752 14.3073 60.5498 14.43 60.6992 14.51C60.8538 14.5847 61.0565 14.638 61.3072 14.67C61.5578 14.702 61.8432 14.7233 62.1632 14.734C62.4832 14.7393 62.8112 14.7553 63.1472 14.782C63.4832 14.8087 63.8112 14.8567 64.1312 14.926C64.4512 14.99 64.7365 15.094 64.9872 15.238C65.2378 15.382 65.4378 15.5793 65.5872 15.83C65.7418 16.0753 65.8192 16.3927 65.8192 16.782C65.8192 17.1447 65.7285 17.4967 65.5472 17.838C65.3712 18.1793 65.1125 18.4833 64.7712 18.75C64.4352 19.0167 64.0192 19.23 63.5232 19.39C63.0325 19.5553 62.4725 19.638 61.8432 19.638C61.2245 19.638 60.6858 19.5767 60.2272 19.454C59.7685 19.3367 59.3872 19.1767 59.0832 18.974C58.7792 18.7767 58.5525 18.5473 58.4032 18.286C58.2538 18.0247 58.1792 17.7527 58.1792 17.47C58.1792 17.086 58.2938 16.766 58.5232 16.51C58.7578 16.2487 59.0778 16.0407 59.4832 15.886C59.2645 15.774 59.0912 15.6247 58.9632 15.438C58.8352 15.2513 58.7712 15.006 58.7712 14.702C58.7712 14.5793 58.7925 14.454 58.8352 14.326C58.8832 14.1927 58.9498 14.062 59.0352 13.934C59.1258 13.806 59.2378 13.686 59.3712 13.574C59.5045 13.4567 59.6618 13.3527 59.8432 13.262C59.4272 13.038 59.0992 12.7393 58.8592 12.366C58.6245 11.9927 58.5072 11.5553 58.5072 11.054C58.5072 10.6487 58.5872 10.2833 58.7472 9.958C58.9125 9.62733 59.1392 9.34733 59.4272 9.118C59.7205 8.88333 60.0645 8.70467 60.4592 8.582C60.8592 8.45933 61.2938 8.398 61.7632 8.398C62.1152 8.398 62.4458 8.43533 62.7552 8.51C63.0645 8.57933 63.3472 8.68333 63.6032 8.822H65.9632ZM70.7077 8.414C71.3157 8.414 71.8677 8.51267 72.3637 8.71C72.865 8.90733 73.2917 9.18733 73.6437 9.55C74.001 9.91267 74.2757 10.3553 74.4677 10.878C74.6597 11.4007 74.7557 11.9847 74.7557 12.63C74.7557 13.2807 74.6597 13.8673 74.4677 14.39C74.2757 14.9127 74.001 15.358 73.6437 15.726C73.2917 16.094 72.865 16.3767 72.3637 16.574C71.8677 16.7713 71.3157 16.87 70.7077 16.87C70.0943 16.87 69.537 16.7713 69.0357 16.574C68.5343 16.3767 68.105 16.094 67.7477 15.726C67.3957 15.358 67.121 14.9127 66.9237 14.39C66.7317 13.8673 66.6357 13.2807 66.6357 12.63C66.6357 11.9847 66.7317 11.4007 66.9237 10.878C67.121 10.3553 67.3957 9.91267 67.7477 9.55C68.105 9.18733 68.5343 8.90733 69.0357 8.71C69.537 8.51267 70.0943 8.414 70.7077 8.414ZM70.7077 15.35C71.3903 15.35 71.8943 15.1207 72.2197 14.662C72.5503 14.2033 72.7157 13.5313 72.7157 12.646C72.7157 11.7607 72.5503 11.086 72.2197 10.622C71.8943 10.158 71.3903 9.926 70.7077 9.926C70.0143 9.926 69.4997 10.1607 69.1637 10.63C68.833 11.094 68.6677 11.766 68.6677 12.646C68.6677 13.526 68.833 14.198 69.1637 14.662C69.4997 15.1207 70.0143 15.35 70.7077 15.35ZM83.3352 8.542V16.75H82.1272C81.8658 16.75 81.7005 16.63 81.6312 16.39L81.4952 15.734C81.1592 16.0753 80.7885 16.3527 80.3832 16.566C79.9778 16.774 79.5005 16.878 78.9512 16.878C78.5032 16.878 78.1058 16.8033 77.7592 16.654C77.4178 16.4993 77.1298 16.2833 76.8952 16.006C76.6605 15.7287 76.4818 15.4007 76.3592 15.022C76.2418 14.638 76.1832 14.2167 76.1832 13.758V8.542H78.1592V13.758C78.1592 14.2593 78.2738 14.6487 78.5032 14.926C78.7378 15.198 79.0872 15.334 79.5512 15.334C79.8925 15.334 80.2125 15.2593 80.5112 15.11C80.8098 14.9553 81.0925 14.7447 81.3592 14.478V8.542H83.3352ZM88.0304 16.878C87.3158 16.878 86.7664 16.678 86.3824 16.278C86.0038 15.8727 85.8144 15.3153 85.8144 14.606V10.022H84.9744C84.8678 10.022 84.7771 9.98733 84.7024 9.918C84.6278 9.84867 84.5904 9.74467 84.5904 9.606V8.822L85.9104 8.606L86.3264 6.366C86.3531 6.25933 86.4038 6.17667 86.4784 6.118C86.5531 6.05933 86.6491 6.03 86.7664 6.03H87.7904V8.614H89.9824V10.022H87.7904V14.47C87.7904 14.726 87.8518 14.926 87.9744 15.07C88.1024 15.214 88.2758 15.286 88.4944 15.286C88.6171 15.286 88.7184 15.2727 88.7984 15.246C88.8838 15.214 88.9558 15.182 89.0144 15.15C89.0784 15.118 89.1344 15.0887 89.1824 15.062C89.2304 15.03 89.2784 15.014 89.3264 15.014C89.3851 15.014 89.4331 15.03 89.4704 15.062C89.5078 15.0887 89.5478 15.1313 89.5904 15.19L90.1824 16.15C89.8944 16.39 89.5638 16.5713 89.1904 16.694C88.8171 16.8167 88.4304 16.878 88.0304 16.878Z" fill="#A4A6B3"/>
<path d="M1.48755 19.6667H11.9004V21H0V1H11.9004V2.33333H1.48755V19.6667ZM21 11L15.3403 16.0833L14.4106 15.25L18.42 11.6667H5.95019V10.3333H18.42L14.4106 6.75L15.3403 5.91667L21 11Z" fill="#AAAAAA"/>
</svg>
